<?xml version="1.0" standalone="no"?>
<!DOCTYPE svg PUBLIC "-//W3C//DTD SVG 20010904//EN"
 "http://www.w3.org/TR/2001/REC-SVG-20010904/DTD/svg10.dtd">
<svg version="1.0" xmlns="http://www.w3.org/2000/svg"
 width="225.000000pt" height="225.000000pt" viewBox="0 0 225.000000 225.000000"
 preserveAspectRatio="xMidYMid meet">
<metadata>
Created by potrace 1.11, written by Peter Selinger 2001-2013
</metadata>
<g transform="translate(0.000000,225.000000) scale(0.100000,-0.100000)"
fill="#000000" stroke="none">
<path d="M837 2083 c-4 -3 -18 -7 -31 -9 -66 -7 -281 -141 -373 -233 -176
-176 -278 -397 -298 -651 -17 -202 46 -446 157 -617 150 -230 405 -404 667
-453 96 -18 326 -13 416 9 465 114 785 520 785 997 0 45 -4 85 -8 88 -4 2 -8
-3 -9 -12 -4 -78 -3 -77 -54 -75 -29 0 -55 -5 -66 -14 -10 -8 -12 -11 -4 -7
24 12 101 15 101 4 0 -7 -8 -9 -20 -5 -15 5 -18 3 -14 -9 3 -9 12 -16 20 -16
8 0 14 -4 14 -9 0 -5 -10 -7 -22 -4 -17 4 -19 2 -9 -5 11 -8 8 -10 -12 -9 -14
1 -23 5 -21 8 4 8 -23 21 -48 24 -9 1 -15 -2 -12 -7 3 -4 -2 -8 -11 -8 -9 0
-14 4 -11 9 3 5 -1 12 -10 15 -12 5 -15 2 -10 -10 4 -12 1 -14 -14 -9 -11 4
-20 3 -20 -2 0 -4 -11 -13 -25 -20 -14 -6 -23 -7 -19 -2 3 5 0 9 -6 9 -6 0 -8
5 -4 11 4 7 1 10 -7 7 -8 -3 -14 -18 -13 -36 0 -17 -3 -29 -8 -26 -5 3 -5 10
-2 16 5 8 -4 9 -27 5 -24 -5 -30 -4 -19 3 12 8 11 10 -7 10 -12 0 -24 4 -28 9
-3 6 10 5 30 0 20 -6 42 -8 48 -6 7 2 -5 8 -25 12 -43 8 -49 21 -15 35 13 5
16 9 7 10 -10 1 -9 4 5 10 11 5 14 9 7 9 -8 1 -4 10 10 24 72 69 181 277 201
384 13 67 12 71 -10 105 -24 38 -43 56 -43 39 0 -5 5 -13 11 -17 23 -14 -9
-194 -34 -194 -4 0 -6 -4 -3 -9 7 -11 -3 -41 -14 -41 -5 0 -5 12 -1 28 4 15 6
33 3 41 -3 8 0 11 7 7 6 -4 11 -2 11 3 0 20 2 26 11 38 14 16 -7 26 -28 14
-12 -7 -13 -10 -4 -11 8 0 4 -8 -10 -21 -13 -11 -18 -18 -11 -14 6 3 12 1 12
-4 0 -6 -9 -11 -20 -11 -11 0 -20 5 -20 10 0 6 -8 10 -17 9 -11 0 -13 -3 -5
-6 6 -2 9 -10 6 -15 -4 -7 -2 -8 4 -4 7 4 12 3 12 -3 0 -6 7 -8 15 -5 8 4 15
1 15 -5 0 -10 -12 -15 -31 -13 -3 1 -4 -11 -2 -26 3 -23 2 -24 -6 -7 -5 11
-10 14 -10 7 -1 -7 -9 -12 -18 -11 -10 2 -31 0 -47 -5 -23 -6 -27 -9 -15 -17
22 -14 39 -11 40 9 0 14 2 14 9 -3 5 -11 9 -15 9 -10 1 6 5 3 10 -5 10 -15 6
-30 -10 -30 -5 0 -9 7 -9 17 0 19 -10 12 -14 -10 -2 -16 -36 -53 -36 -40 0 4
-4 1 -10 -7 -5 -8 -12 -12 -15 -8 -3 3 1 12 9 21 17 17 11 28 -11 20 -8 -3
-25 0 -39 8 -21 11 -27 10 -42 -5 -16 -17 -16 -18 5 -7 28 14 36 14 27 -1 -4
-6 -3 -8 4 -4 6 3 13 2 17 -4 4 -6 11 -8 16 -5 5 4 9 1 9 -4 0 -6 -6 -11 -12
-11 -10 0 -10 -2 0 -9 11 -7 10 -10 -3 -15 -24 -9 -24 -8 -20 14 2 11 -1 20
-6 20 -5 0 -9 -6 -8 -12 3 -27 -2 -38 -16 -38 -8 0 -15 -7 -15 -15 0 -8 -5
-15 -11 -15 -8 0 -7 -6 2 -17 13 -16 12 -17 -4 -4 -13 11 -15 17 -6 28 7 7 10
16 7 18 -6 6 -42 -37 -45 -53 -2 -7 3 -12 10 -12 8 0 7 -4 -3 -10 -8 -5 -19
-10 -25 -10 -5 0 -3 5 5 10 12 8 11 10 -8 10 -12 0 -25 7 -28 15 -4 8 -11 12
-17 8 -5 -3 -7 -1 -4 5 4 5 16 8 28 5 16 -4 17 -8 7 -14 -9 -6 -8 -9 7 -9 14
0 21 7 22 20 1 11 -1 19 -5 19 -38 -6 -62 3 -62 22 0 11 -4 17 -10 14 -6 -4
-7 1 -3 10 5 15 3 15 -15 4 -20 -13 -20 -14 -4 -24 9 -5 18 -17 20 -25 2 -10
-4 -7 -18 8 -21 22 -40 29 -40 14 0 -5 -8 -19 -19 -31 -17 -19 -19 -20 -25 -5
-4 9 -4 19 -1 22 3 3 5 0 5 -7 0 -7 5 -9 12 -5 8 5 4 13 -11 26 -13 10 -20 18
-15 18 4 0 15 -7 25 -16 17 -15 18 -14 15 12 -2 16 2 32 8 37 6 4 1 6 -12 4
-13 -2 -28 -10 -33 -18 -7 -12 -9 -11 -9 3 0 9 -6 19 -12 22 -7 3 -4 5 7 5 42
-2 48 0 36 14 -6 8 -7 18 -3 22 4 5 1 5 -6 1 -7 -4 -10 -12 -7 -17 4 -5 -3 -9
-14 -9 -23 0 -36 -16 -20 -25 6 -5 3 -13 -11 -22 -19 -13 -23 -13 -41 3 -20
18 -27 6 -7 -14 8 -8 8 -12 1 -12 -6 0 -13 7 -17 15 -3 8 -15 15 -26 15 -11 0
-20 4 -20 9 0 16 -53 61 -72 61 -11 0 -16 5 -13 10 3 6 1 10 -4 10 -6 0 -11
-11 -11 -25 0 -15 6 -25 15 -25 24 0 57 -33 42 -42 -9 -6 -9 -8 1 -8 6 0 12
-5 12 -11 0 -5 -4 -7 -10 -4 -5 3 -10 1 -10 -6 0 -8 -4 -8 -12 -2 -12 10 -22
10 -58 2 -9 -3 -15 3 -15 13 0 10 -5 22 -11 28 -8 8 -11 5 -9 -12 2 -18 -2
-24 -17 -24 -17 0 -17 2 -3 12 9 7 13 18 9 29 -5 12 -2 16 12 15 10 -1 24 -2
29 -1 18 2 15 41 -5 61 -18 18 -18 18 -25 -3 -4 -12 -6 -28 -6 -35 1 -8 -5 -7
-18 5 -12 10 -21 22 -21 28 0 5 5 3 10 -5 7 -11 10 -11 10 -2 0 7 5 10 10 7 6
-3 10 -1 10 4 0 10 -14 15 -33 12 -5 -1 -6 3 -3 8 4 5 2 12 -4 16 -5 3 -10 2
-10 -2 0 -15 -41 -12 -47 3 -4 12 -8 12 -13 4 -5 -9 -9 -9 -14 -1 -4 6 -2 11
4 11 8 0 8 6 0 21 -7 11 -9 23 -7 26 3 2 8 -4 11 -15 4 -11 14 -23 24 -26 9
-3 23 -9 31 -12 9 -4 11 -2 6 5 -4 7 -17 17 -29 22 -17 8 -16 9 9 4 l30 -5
-27 24 c-16 14 -28 29 -28 34 0 11 33 42 45 42 4 0 -2 -9 -15 -20 -20 -18 -20
-24 1 -22 4 1 6 -6 5 -15 0 -9 7 -17 20 -18 17 -1 20 3 17 19 -4 18 -2 18 12
-4 15 -23 15 -20 -1 28 -4 11 2 8 15 -8 22 -26 26 -39 14 -41 -27 -2 -47 -9
-55 -17 -12 -12 -2 -32 14 -32 7 0 7 4 -1 13 -8 11 -6 13 11 12 25 -2 35 -20
17 -31 -8 -5 -9 -3 -4 6 5 9 4 11 -3 6 -23 -14 -11 -24 28 -23 22 1 40 6 40
10 0 5 5 5 12 1 6 -4 8 -3 5 3 -4 6 -18 8 -33 5 -23 -4 -25 -2 -19 18 5 17 4
21 -5 15 -9 -5 -11 -4 -6 3 12 19 26 14 27 -10 1 -17 3 -18 6 -6 2 9 10 15 18
12 7 -3 16 -1 20 5 3 7 0 8 -9 5 -9 -3 -16 -1 -16 5 0 6 -6 10 -12 9 -7 -2
-12 3 -10 10 1 8 -2 11 -7 8 -5 -4 -18 7 -28 24 l-17 30 -19 -32 c-10 -18 -16
-25 -13 -15 3 9 0 17 -6 17 -7 0 -6 6 3 16 9 11 10 17 1 23 -7 4 -3 17 14 39
14 18 30 29 36 26 7 -4 8 -2 4 5 -5 7 28 47 86 105 156 154 284 230 403 239
l40 3 -30 13 c-38 16 -103 7 -172 -24 -29 -13 -53 -27 -53 -30 0 -3 10 -1 23
5 33 16 -60 -65 -123 -107 -30 -21 -81 -62 -112 -93 -32 -31 -58 -54 -58 -52
0 3 -12 -7 -26 -21 -15 -15 -31 -24 -37 -20 -7 4 -8 0 -4 -11 5 -13 3 -17 -7
-13 -8 3 -20 -1 -26 -9 -7 -8 -18 -14 -24 -13 -7 0 -7 2 1 5 7 3 9 12 6 20 -9
25 -20 15 -18 -18 2 -24 -6 -39 -34 -67 -43 -43 -59 -48 -57 -18 1 12 -3 28
-8 36 -8 11 -8 13 0 8 7 -4 15 0 18 9 4 11 2 15 -8 11 -8 -3 -13 1 -12 11 1
10 -6 16 -16 16 -10 -1 -18 2 -18 6 0 12 29 20 35 10 8 -13 25 -13 25 0 0 6
-5 9 -11 8 -6 -2 -15 7 -19 19 -7 17 -6 21 6 16 7 -3 14 0 14 7 0 6 4 9 8 6 4
-2 14 0 22 6 12 8 12 9 -2 4 -11 -3 -18 0 -18 7 0 7 -5 4 -11 -6 -6 -9 -14
-15 -19 -12 -5 3 -14 -3 -19 -14 -8 -14 -8 -21 2 -24 6 -2 0 -8 -15 -12 -16
-4 -28 -11 -28 -17 0 -5 5 -6 10 -3 6 3 10 1 10 -5 0 -7 -6 -10 -12 -7 -17 6
-12 47 7 61 13 9 11 11 -9 12 -19 1 -24 -2 -21 -17 2 -11 0 -17 -6 -14 -5 4
-7 11 -4 16 4 5 -2 9 -12 10 -14 0 -14 2 5 9 30 13 28 24 -3 16 -18 -5 -25 -2
-25 9 0 8 -4 15 -8 15 -4 0 -8 10 -9 21 -2 25 1 23 21 -16 16 -30 16 -30 17
-5 0 23 1 23 9 5 l9 -20 1 20 c1 13 5 8 12 -15 6 -19 13 -29 15 -22 3 6 9 10
14 7 15 -10 49 15 49 35 0 14 -5 18 -17 13 -12 -5 -14 -3 -8 8 5 8 4 11 0 6
-15 -14 -15 -39 1 -33 8 3 14 1 14 -3 0 -13 -25 -20 -40 -11 -7 4 -9 13 -5 19
4 7 1 19 -6 27 -17 21 8 38 31 21 10 -7 10 -5 -2 8 -15 16 -19 16 -34 4 -16
-13 -16 -12 -6 8 8 15 9 24 2 28 -8 5 -7 11 1 21 10 12 8 19 -11 37 -22 20
-22 20 -7 1 22 -27 22 -37 -2 -24 -14 7 -22 7 -26 0 -4 -6 -11 -8 -16 -5 -5 3
-6 -2 -2 -11 4 -11 3 -15 -5 -10 -8 4 -10 -4 -8 -28 1 -19 -1 -33 -6 -30 -4 3
-8 0 -8 -6 0 -6 -5 -8 -11 -4 -8 5 -7 9 1 14 9 5 11 20 7 44 -3 22 -2 34 4 31
5 -4 9 1 9 10 0 9 4 14 9 11 5 -3 11 0 14 7 3 8 -4 14 -20 15 -17 1 -22 -2
-17 -11 5 -9 4 -9 -6 0 -11 10 -7 18 18 42 18 16 32 39 32 51 0 14 8 24 22 28
21 5 21 6 2 13 -15 6 -13 8 12 8 19 1 34 7 38 16 6 16 3 19 -7 8z m-79 -68
c-3 -3 -9 2 -12 12 -6 14 -5 15 5 6 7 -7 10 -15 7 -18z m-48 -25 c0 -5 -4 -10
-10 -10 -5 0 -10 5 -10 10 0 6 5 10 10 10 6 0 10 -4 10 -10z m-23 -62 c-3 -7
-5 -2 -5 12 0 14 2 19 5 13 2 -7 2 -19 0 -25z m122 -86 c-5 -2 -7 -8 -3 -13 3
-5 1 -9 -4 -9 -12 0 -24 29 -16 41 3 5 3 9 0 9 -3 0 -10 -10 -17 -21 -6 -12
-7 -19 -1 -15 6 3 9 -9 9 -29 -1 -19 -4 -35 -8 -35 -15 0 -16 66 -2 94 l15 29
19 -24 c10 -13 14 -26 8 -27z m-92 -4 c-3 -8 -6 -5 -6 6 -1 11 2 17 5 13 3 -3
4 -12 1 -19z m113 -72 c0 -6 -7 -2 -15 8 -10 13 -15 15 -15 6 0 -20 -14 -2
-15 20 -2 20 -1 20 22 -2 12 -12 23 -26 23 -32z m-147 7 c-3 -7 -6 -13 -8 -13
-2 0 -5 6 -8 13 -3 8 1 14 8 14 7 0 11 -6 8 -14z m74 -85 c-3 -8 -6 -5 -6 6
-1 11 2 17 5 13 3 -3 4 -12 1 -19z m117 -63 c-4 -8 -11 -12 -16 -9 -6 4 -5 10
3 15 19 12 19 11 13 -6z m-41 -45 c4 0 5 5 1 12 -4 7 -3 8 4 4 7 -4 12 -11 12
-17 0 -15 -27 -10 -41 9 -11 14 -11 15 1 5 8 -7 18 -13 23 -13z m45 -47 c1
-14 -1 -23 -5 -19 -10 10 -14 46 -5 46 4 0 9 -12 10 -27z m-41 -45 c-3 -8 -6
-5 -6 6 -1 11 2 17 5 13 3 -3 4 -12 1 -19z m151 -54 c12 -4 22 -11 22 -16 0
-5 -4 -6 -10 -3 -5 3 -20 8 -31 10 -12 3 -24 7 -27 10 -7 7 17 6 46 -1z m88
-61 c19 -7 18 -20 -1 -20 -8 0 -13 2 -10 5 5 5 -20 32 -30 32 -3 0 -3 -6 1
-12 4 -7 3 -9 -1 -5 -15 13 -14 36 1 30 8 -3 15 1 15 8 1 8 4 4 6 -9 3 -13 11
-26 19 -29z m844 22 c-7 -8 -17 -15 -23 -15 -6 0 -2 7 9 15 25 19 30 19 14 0z
m-685 -37 c14 -12 25 -30 25 -40 0 -15 5 -18 19 -13 11 3 22 1 25 -4 8 -12
-35 -11 -51 2 -7 5 -10 14 -7 19 6 9 -24 36 -56 50 -13 5 -12 7 2 7 10 1 29
-9 43 -21z m661 -3 c-11 -8 -24 -15 -30 -15 -5 0 -1 7 10 15 10 8 24 14 29 14
6 0 1 -6 -9 -14z m-16 -28 c0 -2 -9 -12 -20 -22 -19 -17 -20 -17 -20 -1 0 9 4
15 9 11 5 -3 12 -1 16 5 6 10 15 14 15 7z m-486 -28 c-3 -6 0 -15 7 -20 12 -7
11 -9 -1 -9 -10 0 -11 -3 -4 -8 8 -5 7 -11 -4 -22 -14 -13 -15 -12 -9 3 7 20
3 21 -25 6 -16 -9 -19 -8 -13 2 6 9 3 11 -9 6 -10 -4 -15 -3 -11 3 8 13 -5 13
-25 0 -12 -7 -10 -10 9 -18 l23 -8 -28 -13 c-23 -10 -26 -10 -16 2 7 8 9 17 5
21 -18 18 -8 31 23 32 19 0 34 -3 34 -8 0 -4 4 -8 10 -8 5 0 8 6 6 13 -1 6 -1
9 1 5 3 -5 9 -8 14 -8 6 0 7 5 4 10 -6 10 1 30 11 30 3 0 2 -5 -2 -11z m366
-9 c-8 -5 -10 -10 -5 -10 6 0 2 -7 -8 -15 -11 -7 -24 -11 -31 -9 -7 3 -17 -5
-23 -18 -11 -23 -11 -23 -9 4 0 14 3 25 4 23 2 -2 18 5 35 16 32 19 66 27 37
9z m-533 -51 c2 -18 1 -20 -6 -9 -5 8 -8 17 -5 21 2 4 -1 10 -6 12 -6 3 -5 4
1 3 7 -1 14 -13 16 -27z m261 17 c-7 -8 -15 -12 -17 -11 -5 6 10 25 20 25 5 0
4 -6 -3 -14z m-321 -18 c-3 -8 -6 -5 -6 6 -1 11 2 17 5 13 3 -3 4 -12 1 -19z
m346 -3 c0 -6 -7 -11 -16 -11 -16 -2 -16 -1 -1 3 14 4 15 7 3 15 -11 7 -11 9
-1 6 8 -2 14 -8 15 -13z m307 9 c0 -8 -19 -13 -24 -6 -3 5 1 9 9 9 8 0 15 -2
15 -3z m-386 -32 c-5 -4 -12 -11 -15 -15 -3 -5 -9 -2 -12 5 -3 9 3 14 15 15
11 1 16 -1 12 -5z m106 -2 c-8 -5 -19 -10 -25 -10 -5 0 -3 5 5 10 8 5 20 10
25 10 6 0 3 -5 -5 -10z m-325 -38 c-11 -9 -14 -10 -7 -2 15 18 16 34 0 24 -7
-5 -8 -3 -3 5 5 9 10 10 18 2 8 -8 6 -16 -8 -29z m119 29 c4 -5 -3 -7 -14 -4
-23 6 -26 13 -6 13 8 0 17 -4 20 -9z m151 -1 c-28 -12 -37 -12 -30 0 3 6 16
10 28 9 21 0 21 -1 2 -9z m152 -46 c-3 -3 -12 -4 -19 -1 -8 3 -5 6 6 6 11 1
17 -2 13 -5z m390 -96 c2 -17 0 -19 -7 -8 -5 8 -6 18 -4 22 8 12 10 10 11 -14z
m-39 3 c6 -1 12 -6 12 -11 0 -7 -6 -7 -20 0 -14 7 -20 7 -21 0 -1 -5 -3 -14
-4 -20 -1 -5 -3 -15 -4 -21 -1 -8 -6 -7 -17 2 -14 12 -14 14 2 26 10 7 12 13
6 13 -7 0 -12 4 -12 8 0 5 10 8 23 6 12 -1 28 -3 35 -3z m-248 -26 c-7 -9 -15
-13 -17 -11 -7 7 7 26 19 26 6 0 6 -6 -2 -15z m22 -12 c-5 -10 -7 -25 -5 -33
4 -13 3 -13 -6 -1 -9 14 2 51 15 51 2 0 1 -8 -4 -17z m62 -12 c4 -5 -3 -7 -14
-4 -23 6 -26 13 -6 13 8 0 17 -4 20 -9z m-124 -21 c0 -5 -2 -10 -4 -10 -3 0
-8 5 -11 10 -3 6 -1 10 4 10 6 0 11 -4 11 -10z m100 -14 c0 -2 -6 -9 -14 -15
-11 -9 -16 -9 -22 0 -4 7 -3 9 4 5 6 -3 13 -2 17 4 6 10 15 14 15 6z m185 -25
c3 -5 2 -12 -3 -15 -5 -3 -9 1 -9 9 0 17 3 19 12 6z m-65 -5 c0 -2 -8 -10 -17
-17 -16 -13 -17 -12 -4 4 13 16 21 21 21 13z m-195 -26 c3 -6 -1 -7 -9 -4 -18
7 -21 14 -7 14 6 0 13 -4 16 -10z m75 -10 c-8 -5 -22 -9 -30 -9 -10 0 -8 3 5
9 27 12 43 12 25 0z"/>
<path d="M1725 1270 c-3 -6 1 -7 9 -4 18 7 21 14 7 14 -6 0 -13 -4 -16 -10z"/>
<path d="M812 1970 c0 -14 2 -19 5 -12 2 6 2 18 0 25 -3 6 -5 1 -5 -13z"/>
<path d="M854 1855 c1 -8 6 -18 11 -22 4 -4 5 -2 1 5 -4 6 -3 12 1 12 5 0 15
-6 22 -12 11 -10 12 -10 7 -1 -4 7 -15 17 -26 23 -14 7 -18 6 -16 -5z"/>
<path d="M900 1761 c0 -5 7 -12 16 -15 14 -5 15 -4 4 9 -14 17 -20 19 -20 6z"/>
<path d="M987 1739 c7 -7 15 -10 18 -7 3 3 -2 9 -12 12 -14 6 -15 5 -6 -5z"/>
<path d="M990 1711 c0 -7 -4 -10 -8 -7 -5 3 -9 -2 -9 -10 0 -13 2 -13 16 0 8
9 12 19 8 22 -4 4 -7 2 -7 -5z"/>
<path d="M926 1688 c-12 -58 -12 -87 1 -92 7 -3 13 -11 13 -17 0 -8 -4 -8 -15
1 -9 7 -18 10 -22 6 -3 -3 -1 -6 5 -6 7 0 12 -5 12 -11 0 -5 -4 -7 -10 -4 -5
3 -10 1 -10 -4 0 -14 6 -14 31 0 14 7 18 16 14 30 -4 11 -3 19 2 18 21 -4 34
2 27 12 -4 8 -9 7 -15 -2 -7 -11 -9 -9 -10 6 l0 20 -10 -20 c-7 -15 -8 -6 -6
33 4 54 1 68 -7 30z"/>
<path d="M941 1664 c0 -11 3 -14 6 -6 3 7 2 16 -1 19 -3 4 -6 -2 -5 -13z"/>
<path d="M1955 1600 c3 -5 10 -10 16 -10 5 0 9 5 9 10 0 6 -7 10 -16 10 -8 0
-12 -4 -9 -10z"/>
<path d="M1830 1515 c-7 -9 -8 -15 -2 -15 5 0 12 7 16 15 3 8 4 15 2 15 -2 0
-9 -7 -16 -15z"/>
<path d="M1619 1483 c-13 -16 -12 -17 4 -4 9 7 17 15 17 17 0 8 -8 3 -21 -13z"/>
<path d="M1768 1493 c7 -3 16 -2 19 1 4 3 -2 6 -13 5 -11 0 -14 -3 -6 -6z"/>
<path d="M1579 1473 c-13 -16 -12 -17 4 -4 9 7 17 15 17 17 0 8 -8 3 -21 -13z"/>
<path d="M1809 1469 l-24 -20 28 17 c15 9 27 18 27 20 0 8 -8 4 -31 -17z"/>
<path d="M1201 1449 c5 -10 6 -25 3 -33 -3 -9 -1 -16 6 -16 6 0 8 5 5 10 -3 6
-2 10 4 10 5 0 13 -5 16 -11 4 -6 13 -8 21 -5 8 3 14 1 14 -4 0 -6 -7 -10 -17
-10 -9 0 -14 -3 -10 -6 3 -3 15 -3 27 1 16 5 19 10 10 20 -7 8 -9 19 -6 24 4
5 1 13 -5 17 -8 5 -9 3 -4 -6 6 -10 4 -12 -10 -6 -15 5 -16 4 -5 -9 7 -8 8
-15 3 -15 -15 0 -46 38 -39 48 3 5 -1 9 -9 9 -10 0 -11 -5 -4 -18z"/>
<path d="M1020 1450 c0 -5 5 -10 11 -10 5 0 7 5 4 10 -3 6 -8 10 -11 10 -2 0
-4 -4 -4 -10z"/>
<path d="M1793 1440 c-35 -14 -27 -20 10 -8 17 6 34 13 36 14 8 7 -24 3 -46
-6z"/>
<path d="M1360 1433 c0 -1 8 -7 18 -12 13 -7 19 -6 19 2 0 7 -9 13 -19 13 -10
0 -18 -1 -18 -3z"/>
<path d="M1589 1423 c-13 -16 -12 -17 4 -4 16 13 21 21 13 21 -2 0 -10 -8 -17
-17z"/>
<path d="M1616 1424 c-5 -14 -4 -15 9 -4 17 14 19 20 6 20 -5 0 -12 -7 -15
-16z"/>
<path d="M1140 1420 c0 -5 5 -10 11 -10 5 0 7 5 4 10 -3 6 -8 10 -11 10 -2 0
-4 -4 -4 -10z"/>
<path d="M1301 1427 c2 -1 13 -9 24 -17 19 -14 19 -14 6 3 -7 9 -18 17 -24 17
-6 0 -8 -1 -6 -3z"/>
<path d="M1639 1413 c-13 -16 -12 -17 4 -4 9 7 17 15 17 17 0 8 -8 3 -21 -13z"/>
<path d="M1740 1419 c0 -5 -6 -7 -12 -3 -7 4 -9 3 -5 -1 13 -15 36 -14 30 1
-6 17 -13 18 -13 3z"/>
<path d="M1379 1397 c6 -8 7 -18 3 -22 -4 -5 -1 -5 6 -1 10 6 10 11 1 22 -6 8
-14 14 -16 14 -3 0 0 -6 6 -13z"/>
<path d="M1518 1403 c7 -3 16 -2 19 1 4 3 -2 6 -13 5 -11 0 -14 -3 -6 -6z"/>
<path d="M1685 1393 c-11 -9 -14 -13 -5 -10 8 2 23 0 32 -4 11 -6 19 -5 24 3
4 7 4 10 -1 6 -4 -4 -13 -1 -19 7 -10 12 -14 12 -31 -2z"/>
<path d="M1324 1381 c4 -5 0 -12 -6 -14 -7 -3 -3 -6 9 -6 16 -1 21 3 17 14 -4
8 -10 15 -16 15 -5 0 -7 -4 -4 -9z"/>
<path d="M1460 1380 c-9 -6 -10 -10 -3 -10 6 0 15 5 18 10 8 12 4 12 -15 0z"/>
<path d="M1638 1383 c7 -3 16 -2 19 1 4 3 -2 6 -13 5 -11 0 -14 -3 -6 -6z"/>
<path d="M1746 1373 c-6 -14 -5 -15 5 -6 7 7 10 15 7 18 -3 3 -9 -2 -12 -12z"/>
<path d="M1772 1372 c4 -21 35 -28 35 -8 0 8 -9 17 -19 19 -14 4 -18 1 -16
-11z"/>
<path d="M1286 1371 c5 -11 3 -13 -9 -8 -14 5 -15 3 -5 -12 9 -15 20 -18 50
-13 33 4 37 2 32 -12 -6 -15 6 -22 19 -10 13 14 -7 34 -35 34 -17 0 -37 8 -45
18 -8 9 -11 11 -7 3z"/>
<path d="M1550 1370 c-9 -6 -10 -10 -3 -10 6 0 15 5 18 10 8 12 4 12 -15 0z"/>
<path d="M1495 1360 c-8 -13 5 -13 25 0 13 8 13 10 -2 10 -9 0 -20 -4 -23 -10z"/>
<path d="M1570 1349 c0 -5 5 -7 10 -4 6 3 10 8 10 11 0 2 -4 4 -10 4 -5 0 -10
-5 -10 -11z"/>
<path d="M1172 1325 c8 -19 14 -22 20 -13 6 10 8 10 8 1 0 -7 4 -13 8 -13 5 0
9 7 9 15 0 8 -9 15 -21 15 -17 0 -18 2 -6 10 12 8 11 10 -7 10 -21 0 -22 -2
-11 -25z"/>
<path d="M1589 1333 c-13 -16 -12 -17 4 -4 9 7 17 15 17 17 0 8 -8 3 -21 -13z"/>
<path d="M1610 1325 c-12 -13 -27 -22 -33 -18 -8 5 -26 -13 -27 -28 0 -14 51
-15 76 -3 14 8 34 14 44 14 13 0 17 7 16 24 0 13 -5 22 -9 19 -5 -3 -6 -12 -3
-20 4 -10 2 -13 -8 -10 -7 3 -19 0 -25 -6 -8 -8 -11 -8 -11 1 0 6 8 16 18 21
9 6 12 11 7 11 -6 0 -16 -5 -23 -12 -9 -9 -12 -9 -12 0 0 6 8 16 18 21 9 6 12
11 6 11 -6 0 -21 -11 -34 -25z m6 -24 c-4 -5 0 -11 6 -14 7 -2 1 -4 -15 -4
-15 0 -30 4 -34 10 -3 5 -1 7 5 3 6 -3 13 -2 17 4 3 5 11 10 16 10 6 0 8 -4 5
-9z"/>
<path d="M1140 1332 c0 -7 6 -12 13 -12 8 0 7 -3 -3 -10 -8 -5 -12 -11 -9 -14
2 -3 11 -1 19 4 13 8 13 12 -2 27 -11 11 -18 13 -18 5z"/>
<path d="M2131 1324 c0 -11 3 -14 6 -6 3 7 2 16 -1 19 -3 4 -6 -2 -5 -13z"/>
<path d="M1540 1315 c0 -8 2 -15 4 -15 2 0 6 7 10 15 3 8 1 15 -4 15 -6 0 -10
-7 -10 -15z"/>
<path d="M1465 1309 c-11 -17 1 -21 15 -4 8 9 8 15 2 15 -6 0 -14 -5 -17 -11z"/>
<path d="M2137 1283 c-3 -5 -1 -17 4 -28 7 -17 8 -17 8 8 1 27 -4 34 -12 20z"/>
<path d="M1996 1173 c-6 -14 -5 -15 5 -6 7 7 10 15 7 18 -3 3 -9 -2 -12 -12z"/>
<path d="M2068 1163 c7 -3 16 -2 19 1 4 3 -2 6 -13 5 -11 0 -14 -3 -6 -6z"/>
<path d="M2000 1140 c8 -5 20 -10 25 -10 6 0 3 5 -5 10 -8 5 -19 10 -25 10 -5
0 -3 -5 5 -10z"/>
<path d="M1881 1129 c10 -7 7 -9 -11 -7 -19 2 -25 -1 -24 -14 2 -18 -5 -21
-41 -19 -19 2 -19 1 -1 -10 14 -9 24 -9 37 -1 12 8 26 9 43 2 23 -8 24 -7 17
13 -6 15 -4 25 6 32 10 8 7 10 -13 12 -20 1 -23 -1 -13 -8z m9 -33 c0 -2 -9
-2 -20 1 -11 3 -20 9 -20 15 0 5 9 4 20 -2 11 -6 20 -12 20 -14z"/>
<path d="M1963 1123 c9 -2 23 -2 30 0 6 3 -1 5 -18 5 -16 0 -22 -2 -12 -5z"/>
<path d="M1919 1103 c-13 -16 -12 -17 4 -4 16 13 21 21 13 21 -2 0 -10 -8 -17
-17z"/>
<path d="M2052 1101 c-10 -6 -10 -10 3 -21 19 -15 25 -11 16 12 -4 11 -11 14
-19 9z"/>
</g>
</svg>
